<mxfile host="app.diagrams.net" modified="2022-04-25T22:47:33.680Z" agent="5.0 (Windows NT 10.0; Win64; x64) AppleWebKit/537.36 (KHTML, like Gecko) Chrome/100.0.4896.127 Safari/537.36" etag="tmubTTnl8NbUpx1WUxKB" version="17.4.6" type="github">
  <diagram id="l4ejdYEq1hXE6AxVtthA" name="Page-1">
    <mxGraphModel dx="1928" dy="563" grid="1" gridSize="10" guides="1" tooltips="1" connect="1" arrows="1" fold="1" page="1" pageScale="1" pageWidth="850" pageHeight="1100" math="0" shadow="0">
      <root>
        <mxCell id="0" />
        <mxCell id="1" parent="0" />
        <mxCell id="cFg4it5Un85z_77vq7gC-1" value="USUARIOS" style="shape=table;startSize=30;container=1;collapsible=1;childLayout=tableLayout;fixedRows=1;rowLines=0;fontStyle=1;align=center;resizeLast=1;" vertex="1" parent="1">
          <mxGeometry x="-120" y="70" width="180" height="160" as="geometry" />
        </mxCell>
        <mxCell id="cFg4it5Un85z_77vq7gC-2" value="" style="shape=tableRow;horizontal=0;startSize=0;swimlaneHead=0;swimlaneBody=0;fillColor=none;collapsible=0;dropTarget=0;points=[[0,0.5],[1,0.5]];portConstraint=eastwest;top=0;left=0;right=0;bottom=0;" vertex="1" parent="cFg4it5Un85z_77vq7gC-1">
          <mxGeometry y="30" width="180" height="30" as="geometry" />
        </mxCell>
        <mxCell id="cFg4it5Un85z_77vq7gC-3" value="PK,FK1" style="shape=partialRectangle;connectable=0;fillColor=none;top=0;left=0;bottom=0;right=0;fontStyle=1;overflow=hidden;" vertex="1" parent="cFg4it5Un85z_77vq7gC-2">
          <mxGeometry width="60" height="30" as="geometry">
            <mxRectangle width="60" height="30" as="alternateBounds" />
          </mxGeometry>
        </mxCell>
        <mxCell id="cFg4it5Un85z_77vq7gC-4" value="Row 1" style="shape=partialRectangle;connectable=0;fillColor=none;top=0;left=0;bottom=0;right=0;align=left;spacingLeft=6;fontStyle=5;overflow=hidden;" vertex="1" parent="cFg4it5Un85z_77vq7gC-2">
          <mxGeometry x="60" width="120" height="30" as="geometry">
            <mxRectangle width="120" height="30" as="alternateBounds" />
          </mxGeometry>
        </mxCell>
        <mxCell id="cFg4it5Un85z_77vq7gC-5" value="" style="shape=tableRow;horizontal=0;startSize=0;swimlaneHead=0;swimlaneBody=0;fillColor=none;collapsible=0;dropTarget=0;points=[[0,0.5],[1,0.5]];portConstraint=eastwest;top=0;left=0;right=0;bottom=1;" vertex="1" parent="cFg4it5Un85z_77vq7gC-1">
          <mxGeometry y="60" width="180" height="30" as="geometry" />
        </mxCell>
        <mxCell id="cFg4it5Un85z_77vq7gC-6" value="PK,FK2" style="shape=partialRectangle;connectable=0;fillColor=none;top=0;left=0;bottom=0;right=0;fontStyle=1;overflow=hidden;" vertex="1" parent="cFg4it5Un85z_77vq7gC-5">
          <mxGeometry width="60" height="30" as="geometry">
            <mxRectangle width="60" height="30" as="alternateBounds" />
          </mxGeometry>
        </mxCell>
        <mxCell id="cFg4it5Un85z_77vq7gC-7" value="Row 2" style="shape=partialRectangle;connectable=0;fillColor=none;top=0;left=0;bottom=0;right=0;align=left;spacingLeft=6;fontStyle=5;overflow=hidden;" vertex="1" parent="cFg4it5Un85z_77vq7gC-5">
          <mxGeometry x="60" width="120" height="30" as="geometry">
            <mxRectangle width="120" height="30" as="alternateBounds" />
          </mxGeometry>
        </mxCell>
        <mxCell id="cFg4it5Un85z_77vq7gC-8" value="" style="shape=tableRow;horizontal=0;startSize=0;swimlaneHead=0;swimlaneBody=0;fillColor=none;collapsible=0;dropTarget=0;points=[[0,0.5],[1,0.5]];portConstraint=eastwest;top=0;left=0;right=0;bottom=0;" vertex="1" parent="cFg4it5Un85z_77vq7gC-1">
          <mxGeometry y="90" width="180" height="30" as="geometry" />
        </mxCell>
        <mxCell id="cFg4it5Un85z_77vq7gC-9" value="" style="shape=partialRectangle;connectable=0;fillColor=none;top=0;left=0;bottom=0;right=0;editable=1;overflow=hidden;" vertex="1" parent="cFg4it5Un85z_77vq7gC-8">
          <mxGeometry width="60" height="30" as="geometry">
            <mxRectangle width="60" height="30" as="alternateBounds" />
          </mxGeometry>
        </mxCell>
        <mxCell id="cFg4it5Un85z_77vq7gC-10" value="Row 3" style="shape=partialRectangle;connectable=0;fillColor=none;top=0;left=0;bottom=0;right=0;align=left;spacingLeft=6;overflow=hidden;" vertex="1" parent="cFg4it5Un85z_77vq7gC-8">
          <mxGeometry x="60" width="120" height="30" as="geometry">
            <mxRectangle width="120" height="30" as="alternateBounds" />
          </mxGeometry>
        </mxCell>
        <mxCell id="cFg4it5Un85z_77vq7gC-11" value="" style="shape=tableRow;horizontal=0;startSize=0;swimlaneHead=0;swimlaneBody=0;fillColor=none;collapsible=0;dropTarget=0;points=[[0,0.5],[1,0.5]];portConstraint=eastwest;top=0;left=0;right=0;bottom=0;" vertex="1" parent="cFg4it5Un85z_77vq7gC-1">
          <mxGeometry y="120" width="180" height="30" as="geometry" />
        </mxCell>
        <mxCell id="cFg4it5Un85z_77vq7gC-12" value="" style="shape=partialRectangle;connectable=0;fillColor=none;top=0;left=0;bottom=0;right=0;editable=1;overflow=hidden;" vertex="1" parent="cFg4it5Un85z_77vq7gC-11">
          <mxGeometry width="60" height="30" as="geometry">
            <mxRectangle width="60" height="30" as="alternateBounds" />
          </mxGeometry>
        </mxCell>
        <mxCell id="cFg4it5Un85z_77vq7gC-13" value="Row 4" style="shape=partialRectangle;connectable=0;fillColor=none;top=0;left=0;bottom=0;right=0;align=left;spacingLeft=6;overflow=hidden;" vertex="1" parent="cFg4it5Un85z_77vq7gC-11">
          <mxGeometry x="60" width="120" height="30" as="geometry">
            <mxRectangle width="120" height="30" as="alternateBounds" />
          </mxGeometry>
        </mxCell>
        <mxCell id="cFg4it5Un85z_77vq7gC-32" value="GENEROS" style="shape=table;startSize=30;container=1;collapsible=1;childLayout=tableLayout;fixedRows=1;rowLines=0;fontStyle=1;align=center;resizeLast=1;" vertex="1" parent="1">
          <mxGeometry x="245" y="100" width="245" height="160" as="geometry" />
        </mxCell>
        <mxCell id="cFg4it5Un85z_77vq7gC-33" value="" style="shape=tableRow;horizontal=0;startSize=0;swimlaneHead=0;swimlaneBody=0;fillColor=none;collapsible=0;dropTarget=0;points=[[0,0.5],[1,0.5]];portConstraint=eastwest;top=0;left=0;right=0;bottom=0;" vertex="1" parent="cFg4it5Un85z_77vq7gC-32">
          <mxGeometry y="30" width="245" height="30" as="geometry" />
        </mxCell>
        <mxCell id="cFg4it5Un85z_77vq7gC-34" value="PK,FK1" style="shape=partialRectangle;connectable=0;fillColor=none;top=0;left=0;bottom=0;right=0;fontStyle=1;overflow=hidden;" vertex="1" parent="cFg4it5Un85z_77vq7gC-33">
          <mxGeometry width="60" height="30" as="geometry">
            <mxRectangle width="60" height="30" as="alternateBounds" />
          </mxGeometry>
        </mxCell>
        <mxCell id="cFg4it5Un85z_77vq7gC-35" value="" style="shape=partialRectangle;connectable=0;fillColor=none;top=0;left=0;bottom=0;right=0;align=left;spacingLeft=6;fontStyle=5;overflow=hidden;" vertex="1" parent="cFg4it5Un85z_77vq7gC-33">
          <mxGeometry x="60" width="185" height="30" as="geometry">
            <mxRectangle width="185" height="30" as="alternateBounds" />
          </mxGeometry>
        </mxCell>
        <mxCell id="cFg4it5Un85z_77vq7gC-36" value="" style="shape=tableRow;horizontal=0;startSize=0;swimlaneHead=0;swimlaneBody=0;fillColor=none;collapsible=0;dropTarget=0;points=[[0,0.5],[1,0.5]];portConstraint=eastwest;top=0;left=0;right=0;bottom=1;" vertex="1" parent="cFg4it5Un85z_77vq7gC-32">
          <mxGeometry y="60" width="245" height="30" as="geometry" />
        </mxCell>
        <mxCell id="cFg4it5Un85z_77vq7gC-37" value="" style="shape=partialRectangle;connectable=0;fillColor=none;top=0;left=0;bottom=0;right=0;fontStyle=1;overflow=hidden;" vertex="1" parent="cFg4it5Un85z_77vq7gC-36">
          <mxGeometry width="60" height="30" as="geometry">
            <mxRectangle width="60" height="30" as="alternateBounds" />
          </mxGeometry>
        </mxCell>
        <mxCell id="cFg4it5Un85z_77vq7gC-38" value="" style="shape=partialRectangle;connectable=0;fillColor=none;top=0;left=0;bottom=0;right=0;align=left;spacingLeft=6;fontStyle=5;overflow=hidden;" vertex="1" parent="cFg4it5Un85z_77vq7gC-36">
          <mxGeometry x="60" width="185" height="30" as="geometry">
            <mxRectangle width="185" height="30" as="alternateBounds" />
          </mxGeometry>
        </mxCell>
        <mxCell id="cFg4it5Un85z_77vq7gC-39" value="" style="shape=tableRow;horizontal=0;startSize=0;swimlaneHead=0;swimlaneBody=0;fillColor=none;collapsible=0;dropTarget=0;points=[[0,0.5],[1,0.5]];portConstraint=eastwest;top=0;left=0;right=0;bottom=0;" vertex="1" parent="cFg4it5Un85z_77vq7gC-32">
          <mxGeometry y="90" width="245" height="30" as="geometry" />
        </mxCell>
        <mxCell id="cFg4it5Un85z_77vq7gC-40" value="" style="shape=partialRectangle;connectable=0;fillColor=none;top=0;left=0;bottom=0;right=0;editable=1;overflow=hidden;" vertex="1" parent="cFg4it5Un85z_77vq7gC-39">
          <mxGeometry width="60" height="30" as="geometry">
            <mxRectangle width="60" height="30" as="alternateBounds" />
          </mxGeometry>
        </mxCell>
        <mxCell id="cFg4it5Un85z_77vq7gC-41" value="Row 3" style="shape=partialRectangle;connectable=0;fillColor=none;top=0;left=0;bottom=0;right=0;align=left;spacingLeft=6;overflow=hidden;" vertex="1" parent="cFg4it5Un85z_77vq7gC-39">
          <mxGeometry x="60" width="185" height="30" as="geometry">
            <mxRectangle width="185" height="30" as="alternateBounds" />
          </mxGeometry>
        </mxCell>
        <mxCell id="cFg4it5Un85z_77vq7gC-42" value="" style="shape=tableRow;horizontal=0;startSize=0;swimlaneHead=0;swimlaneBody=0;fillColor=none;collapsible=0;dropTarget=0;points=[[0,0.5],[1,0.5]];portConstraint=eastwest;top=0;left=0;right=0;bottom=0;" vertex="1" parent="cFg4it5Un85z_77vq7gC-32">
          <mxGeometry y="120" width="245" height="30" as="geometry" />
        </mxCell>
        <mxCell id="cFg4it5Un85z_77vq7gC-43" value="" style="shape=partialRectangle;connectable=0;fillColor=none;top=0;left=0;bottom=0;right=0;editable=1;overflow=hidden;" vertex="1" parent="cFg4it5Un85z_77vq7gC-42">
          <mxGeometry width="60" height="30" as="geometry">
            <mxRectangle width="60" height="30" as="alternateBounds" />
          </mxGeometry>
        </mxCell>
        <mxCell id="cFg4it5Un85z_77vq7gC-44" value="Row 4" style="shape=partialRectangle;connectable=0;fillColor=none;top=0;left=0;bottom=0;right=0;align=left;spacingLeft=6;overflow=hidden;" vertex="1" parent="cFg4it5Un85z_77vq7gC-42">
          <mxGeometry x="60" width="185" height="30" as="geometry">
            <mxRectangle width="185" height="30" as="alternateBounds" />
          </mxGeometry>
        </mxCell>
        <mxCell id="cFg4it5Un85z_77vq7gC-62" value="IDGENERO AUTONUM" style="shape=partialRectangle;connectable=0;fillColor=none;top=0;left=0;bottom=0;right=0;align=left;spacingLeft=6;overflow=hidden;" vertex="1" parent="1">
          <mxGeometry x="305" y="135" width="175" height="30" as="geometry">
            <mxRectangle width="120" height="30" as="alternateBounds" />
          </mxGeometry>
        </mxCell>
        <mxCell id="cFg4it5Un85z_77vq7gC-253" value="LIBROS" style="swimlane;fontStyle=0;childLayout=stackLayout;horizontal=1;startSize=26;horizontalStack=0;resizeParent=1;resizeParentMax=0;resizeLast=0;collapsible=1;marginBottom=0;align=center;fontSize=14;strokeColor=default;fillColor=none;" vertex="1" parent="1">
          <mxGeometry x="640" y="74" width="190" height="296" as="geometry" />
        </mxCell>
        <mxCell id="cFg4it5Un85z_77vq7gC-254" value="PK    ID" style="text;strokeColor=none;fillColor=none;spacingLeft=4;spacingRight=4;overflow=hidden;rotatable=0;points=[[0,0.5],[1,0.5]];portConstraint=eastwest;fontSize=12;" vertex="1" parent="cFg4it5Un85z_77vq7gC-253">
          <mxGeometry y="26" width="190" height="30" as="geometry" />
        </mxCell>
        <mxCell id="cFg4it5Un85z_77vq7gC-255" value="TITULO NOT NULL" style="text;strokeColor=none;fillColor=none;spacingLeft=4;spacingRight=4;overflow=hidden;rotatable=0;points=[[0,0.5],[1,0.5]];portConstraint=eastwest;fontSize=12;" vertex="1" parent="cFg4it5Un85z_77vq7gC-253">
          <mxGeometry y="56" width="190" height="30" as="geometry" />
        </mxCell>
        <mxCell id="cFg4it5Un85z_77vq7gC-258" value="IDIOMA NULL AUTONUM" style="text;strokeColor=none;fillColor=none;spacingLeft=4;spacingRight=4;overflow=hidden;rotatable=0;points=[[0,0.5],[1,0.5]];portConstraint=eastwest;fontSize=12;" vertex="1" parent="cFg4it5Un85z_77vq7gC-253">
          <mxGeometry y="86" width="190" height="30" as="geometry" />
        </mxCell>
        <mxCell id="cFg4it5Un85z_77vq7gC-259" value="PAGINA NOT NULL" style="text;strokeColor=none;fillColor=none;spacingLeft=4;spacingRight=4;overflow=hidden;rotatable=0;points=[[0,0.5],[1,0.5]];portConstraint=eastwest;fontSize=12;" vertex="1" parent="cFg4it5Un85z_77vq7gC-253">
          <mxGeometry y="116" width="190" height="30" as="geometry" />
        </mxCell>
        <mxCell id="cFg4it5Un85z_77vq7gC-256" value="IDAUTOR NULL" style="text;strokeColor=none;fillColor=none;spacingLeft=4;spacingRight=4;overflow=hidden;rotatable=0;points=[[0,0.5],[1,0.5]];portConstraint=eastwest;fontSize=12;" vertex="1" parent="cFg4it5Un85z_77vq7gC-253">
          <mxGeometry y="146" width="190" height="30" as="geometry" />
        </mxCell>
        <mxCell id="cFg4it5Un85z_77vq7gC-261" value="ANIO" style="text;strokeColor=none;fillColor=none;spacingLeft=4;spacingRight=4;overflow=hidden;rotatable=0;points=[[0,0.5],[1,0.5]];portConstraint=eastwest;fontSize=12;" vertex="1" parent="cFg4it5Un85z_77vq7gC-253">
          <mxGeometry y="176" width="190" height="30" as="geometry" />
        </mxCell>
        <mxCell id="cFg4it5Un85z_77vq7gC-262" value="EDITORIAL NULL" style="text;strokeColor=none;fillColor=none;spacingLeft=4;spacingRight=4;overflow=hidden;rotatable=0;points=[[0,0.5],[1,0.5]];portConstraint=eastwest;fontSize=12;" vertex="1" parent="cFg4it5Un85z_77vq7gC-253">
          <mxGeometry y="206" width="190" height="30" as="geometry" />
        </mxCell>
        <mxCell id="cFg4it5Un85z_77vq7gC-263" value="IDGENERO NULL AUTONUM" style="text;strokeColor=none;fillColor=none;spacingLeft=4;spacingRight=4;overflow=hidden;rotatable=0;points=[[0,0.5],[1,0.5]];portConstraint=eastwest;fontSize=12;" vertex="1" parent="cFg4it5Un85z_77vq7gC-253">
          <mxGeometry y="236" width="190" height="30" as="geometry" />
        </mxCell>
        <mxCell id="cFg4it5Un85z_77vq7gC-260" value="IDAUTOR NULL" style="text;strokeColor=none;fillColor=none;spacingLeft=4;spacingRight=4;overflow=hidden;rotatable=0;points=[[0,0.5],[1,0.5]];portConstraint=eastwest;fontSize=12;" vertex="1" parent="cFg4it5Un85z_77vq7gC-253">
          <mxGeometry y="266" width="190" height="30" as="geometry" />
        </mxCell>
        <mxCell id="cFg4it5Un85z_77vq7gC-264" value="" style="edgeStyle=entityRelationEdgeStyle;fontSize=12;html=1;endArrow=ERzeroToMany;endFill=1;rounded=0;" edge="1" parent="1" source="cFg4it5Un85z_77vq7gC-266" target="cFg4it5Un85z_77vq7gC-262">
          <mxGeometry width="100" height="100" relative="1" as="geometry">
            <mxPoint x="530" y="450" as="sourcePoint" />
            <mxPoint x="590" y="300" as="targetPoint" />
          </mxGeometry>
        </mxCell>
        <mxCell id="cFg4it5Un85z_77vq7gC-265" value="EDITORIALES" style="swimlane;fontStyle=0;childLayout=stackLayout;horizontal=1;startSize=26;horizontalStack=0;resizeParent=1;resizeParentMax=0;resizeLast=0;collapsible=1;marginBottom=0;align=center;fontSize=14;strokeColor=default;fillColor=none;" vertex="1" parent="1">
          <mxGeometry x="600" y="447" width="160" height="86" as="geometry" />
        </mxCell>
        <mxCell id="cFg4it5Un85z_77vq7gC-266" value="IDEDITORIAL" style="text;strokeColor=none;fillColor=none;spacingLeft=4;spacingRight=4;overflow=hidden;rotatable=0;points=[[0,0.5],[1,0.5]];portConstraint=eastwest;fontSize=12;" vertex="1" parent="cFg4it5Un85z_77vq7gC-265">
          <mxGeometry y="26" width="160" height="30" as="geometry" />
        </mxCell>
        <mxCell id="cFg4it5Un85z_77vq7gC-267" value="EDITORIAL" style="text;strokeColor=none;fillColor=none;spacingLeft=4;spacingRight=4;overflow=hidden;rotatable=0;points=[[0,0.5],[1,0.5]];portConstraint=eastwest;fontSize=12;" vertex="1" parent="cFg4it5Un85z_77vq7gC-265">
          <mxGeometry y="56" width="160" height="30" as="geometry" />
        </mxCell>
        <mxCell id="cFg4it5Un85z_77vq7gC-269" value="IDIOMAS" style="swimlane;fontStyle=0;childLayout=stackLayout;horizontal=1;startSize=26;horizontalStack=0;resizeParent=1;resizeParentMax=0;resizeLast=0;collapsible=1;marginBottom=0;align=center;fontSize=14;strokeColor=default;fillColor=none;" vertex="1" parent="1">
          <mxGeometry x="360" y="360" width="160" height="86" as="geometry" />
        </mxCell>
        <mxCell id="cFg4it5Un85z_77vq7gC-270" value="IDIIDIOMA" style="text;strokeColor=none;fillColor=none;spacingLeft=4;spacingRight=4;overflow=hidden;rotatable=0;points=[[0,0.5],[1,0.5]];portConstraint=eastwest;fontSize=12;" vertex="1" parent="cFg4it5Un85z_77vq7gC-269">
          <mxGeometry y="26" width="160" height="30" as="geometry" />
        </mxCell>
        <mxCell id="cFg4it5Un85z_77vq7gC-271" value="IDIOMA" style="text;strokeColor=none;fillColor=none;spacingLeft=4;spacingRight=4;overflow=hidden;rotatable=0;points=[[0,0.5],[1,0.5]];portConstraint=eastwest;fontSize=12;" vertex="1" parent="cFg4it5Un85z_77vq7gC-269">
          <mxGeometry y="56" width="160" height="30" as="geometry" />
        </mxCell>
        <mxCell id="cFg4it5Un85z_77vq7gC-275" value="" style="edgeStyle=entityRelationEdgeStyle;fontSize=12;html=1;endArrow=ERzeroToMany;endFill=1;rounded=0;" edge="1" parent="1" target="cFg4it5Un85z_77vq7gC-258">
          <mxGeometry width="100" height="100" relative="1" as="geometry">
            <mxPoint x="520" y="393" as="sourcePoint" />
            <mxPoint x="590" y="200.0000000000001" as="targetPoint" />
          </mxGeometry>
        </mxCell>
        <mxCell id="cFg4it5Un85z_77vq7gC-276" value="AUTORES" style="swimlane;fontStyle=0;childLayout=stackLayout;horizontal=1;startSize=26;horizontalStack=0;resizeParent=1;resizeParentMax=0;resizeLast=0;collapsible=1;marginBottom=0;align=center;fontSize=14;strokeColor=default;fillColor=none;" vertex="1" parent="1">
          <mxGeometry x="130" y="370" width="160" height="176" as="geometry" />
        </mxCell>
        <mxCell id="cFg4it5Un85z_77vq7gC-277" value="IDUTOR" style="text;strokeColor=none;fillColor=none;spacingLeft=4;spacingRight=4;overflow=hidden;rotatable=0;points=[[0,0.5],[1,0.5]];portConstraint=eastwest;fontSize=12;" vertex="1" parent="cFg4it5Un85z_77vq7gC-276">
          <mxGeometry y="26" width="160" height="30" as="geometry" />
        </mxCell>
        <mxCell id="cFg4it5Un85z_77vq7gC-279" value="FECHANAC" style="text;strokeColor=none;fillColor=none;spacingLeft=4;spacingRight=4;overflow=hidden;rotatable=0;points=[[0,0.5],[1,0.5]];portConstraint=eastwest;fontSize=12;" vertex="1" parent="cFg4it5Un85z_77vq7gC-276">
          <mxGeometry y="56" width="160" height="30" as="geometry" />
        </mxCell>
        <mxCell id="cFg4it5Un85z_77vq7gC-78" value="SEXO" style="shape=partialRectangle;connectable=0;fillColor=none;top=0;left=0;bottom=0;right=0;align=left;spacingLeft=6;overflow=hidden;" vertex="1" parent="cFg4it5Un85z_77vq7gC-276">
          <mxGeometry y="86" width="160" height="30" as="geometry">
            <mxRectangle width="150" height="30" as="alternateBounds" />
          </mxGeometry>
        </mxCell>
        <mxCell id="cFg4it5Un85z_77vq7gC-79" value="PAIS" style="shape=partialRectangle;connectable=0;fillColor=none;top=0;left=0;bottom=0;right=0;align=left;spacingLeft=6;overflow=hidden;" vertex="1" parent="cFg4it5Un85z_77vq7gC-276">
          <mxGeometry y="116" width="160" height="30" as="geometry">
            <mxRectangle width="150" height="30" as="alternateBounds" />
          </mxGeometry>
        </mxCell>
        <mxCell id="cFg4it5Un85z_77vq7gC-278" value="APENOM" style="text;strokeColor=none;fillColor=none;spacingLeft=4;spacingRight=4;overflow=hidden;rotatable=0;points=[[0,0.5],[1,0.5]];portConstraint=eastwest;fontSize=12;" vertex="1" parent="cFg4it5Un85z_77vq7gC-276">
          <mxGeometry y="146" width="160" height="30" as="geometry" />
        </mxCell>
      </root>
    </mxGraphModel>
  </diagram>
</mxfile>
